BBC Proms 2012 - 57. Wagner, Berg, R. Strauss and Ravel

Wagner - Parsifal - Prelude (Act 3) and Good Friday Music (20 mins)
Berg - Violin Concerto (25 mins)
J. S. Bach - Sonata for Solo Violin No. 2 in A minor, BWV 1003 (3 mins)
R. Strauss - Der Rosenkavalier - suite (22 mins)
Ravel - La valse (12 mins)
Wagner - The Mastersingers of Nuremberg - Prelude (Act 3) (5 mins)

Gustav Mahler Jugendorchester
Daniele Gatti conductor
Frank Peter Zimmermann violin

One of the great youth orchestras is back, and in distinguished company. Daniele Gatti begins with the weighty tread and unmatched radiance of music he has been exploring at Bayreuth. Frank Peter Zimmermann plays one of the 20th century's most eloquent violin concertos.

Strauss conjures up a bittersweet Vienna of young love, mid-life melancholy and abundant waltz tunes, while Ravel's apotheosis of that dance form may or may not have been intended as a metaphor for the fate of European civilisation as its unstoppable whirling reaches critical mass.

Video
ID                                       : 1
Format                                   : AVC
Format/Info                              : Advanced Video Codec
Format profile                           : Main@L3.0
Format settings, CABAC                   : Yes
Format settings, ReFrames                : 4 frames
Codec ID                                 : avc1
Codec ID/Info                            : Advanced Video Coding
Duration                                 : 1h 49mn
Bit rate mode                            : Constant
Bit rate                                 : 1 404 Kbps
Width                                    : 832 pixels
Height                                   : 468 pixels
Display aspect ratio                     : 16:9
Frame rate mode                          : Constant
Frame rate                               : 25.000 fps
Standard                                 : PAL
Color space                              : YUV
Chroma subsampling                       : 4:2:0
Bit depth                                : 8 bits
Scan type                                : Progressive
Bits/(Pixel*Frame)                       : 0.144
Stream size                              : 1.07 GiB (93%)

Audio
ID                                       : 2
Format                                   : AAC
Format/Info                              : Advanced Audio Codec
Format profile                           : HE-AAC / LC
Codec ID                                 : 40
Duration                                 : 1h 49mn
Bit rate mode                            : Constant
Bit rate                                 : 96.0 Kbps
Channel(s)                               : 2 channels
Channel positions                        : Front: L R
Sampling rate                            : 48.0 KHz / 24.0 KHz
Compression mode                         : Lossy
Stream size                              : 73.9 MiB (6%)
